<svg xmlns="http://www.w3.org/2000/svg" viewBox="0 0 1813 1116"><title>T--USTC-Software--des_feature_nocmd</title><g id="图层_1" data-name="图层 1"><rect x="221" width="1592" height="1116" style="fill:#c1c6c9"/></g><g id="图层_2" data-name="图层 2"><polygon points="1549 733 1046 754 1017.7 745.21 413 733 413 421 1549 421 1549 733" style="fill:#ccc;stroke:#000;stroke-miterlimit:10;stroke-width:12px"/><rect y="23" width="6" height="6" style="fill:#fff"/><polygon points="6 23 0 23 0 29 6 29 6 23 6 23"/><text transform="translate(447 512.36)" style="font-size:72px;fill:#39b54a;font-family:AdobeSongStd-Light-GBpc-EUC-H, Adobe Song Std">#include &lt;stdio.h&gt;<tspan x="0" y="86.4">#include &lt;math.h&gt;</tspan></text><text transform="translate(455 703.36)" style="font-size:72px;fill:#39b54a;font-family:AdobeSongStd-Light-GBpc-EUC-H, Adobe Song Std">printf(”hello,world”)</text></g><g id="图层_4" data-name="图层 4"><rect x="645.46" y="421.65" width="92.48" height="9.03" transform="matrix(0.81, 0.59, -0.59, 0.81, 706.36, -287.26)" style="fill:#af7751"/><polygon points="918 677 853 708 850 719 1000 738 1063 739 1057 664 1034.95 619.02 987 638 918 677" style="fill:#d6a5b2"/><rect x="575" y="595" width="66" height="44" rx="22" transform="translate(940.36 -212.21) rotate(45)" style="fill:#f4e9e1"/><path d="M1038,148" transform="translate(326 37)" style="fill:#d6a5b2"/><rect x="522.72" y="681.4" width="182.26" height="27.66" rx="12" transform="translate(366.04 3.6) rotate(3.22)" style="fill:#d6a5b2"/><rect x="1012" y="489" width="39" height="179" rx="12" style="fill:#d6a5b2"/><circle cx="1029.5" cy="737.5" r="16.5" style="fill:#f4e9e1"/><circle cx="1031.5" cy="479.5" r="16.5" style="fill:#f4e9e1"/><polygon points="981.58 442.77 959.88 427.1 972.67 415.96 978 402 999.7 417.67 988.88 426.36 981.58 442.77" style="fill:#8c8c8c"/></g><g id="图层_3" data-name="图层 3"><path d="M454,653h8s5-28.42,5-38c0-16.92-5-68-5-68h-8s5,48,5,64C459,621.5,454,653,454,653Z" transform="translate(326 37)" style="fill:#d80000"/><path d="M694,509c3.64.18-7.67,5-36,5-13,0-31-5-31-5v-9s12,7,30,7c28.87,0,45.74-6.83,43-7Z" transform="translate(326 37)" style="fill:#d80000"/><circle cx="877.5" cy="585.5" r="90.5" style="fill:#f4e9e1"/><path d="M489.14,455.64C470.06,467.66,449.23,503,446,523c-2.23,13.93,3.34,40.62,7.36,54.1C463.9,612.4,507,640,507,640l-38.91-68.44,22.09,27.59,11.56-27.59-5.59-26.17,21.37,16.23,26.29-23.18-6.31-23.18,18.93,16.55,29.45-23.18-10.22-15.87L606,509.88l13.57-6.77-25.48-23.69L649,529.61s-10.8-23.77-11.35-24.81c-3.52-6.7-17.78-32.33-36-44.74-21-14.35-30.49-17.66-57.84-19.87C530.56,439.12,510.18,442.4,489.14,455.64Z" transform="translate(326 37)" style="fill:#0a0705"/><ellipse cx="757" cy="567.5" rx="28" ry="26.5" style="fill:#0a0705"/><circle cx="901.5" cy="469.5" r="26.5" style="fill:#0a0705"/><circle cx="849" cy="626" r="11" style="fill:#0a0705"/><circle cx="920.5" cy="573.5" r="10.5" style="fill:#0a0705"/><rect x="774" y="548" width="10" height="43" rx="2.5" style="fill:#d80000"/><rect x="546.92" y="449.77" width="44.38" height="9" rx="4.5" transform="translate(469.81 -99.8) rotate(15.67)" style="fill:#d80000"/><ellipse cx="614" cy="557.5" rx="11" ry="6.5" transform="matrix(0.65, -0.76, 0.76, 0.65, 116.65, 693.97)" style="fill:#e5b5b5"/><ellipse cx="540" cy="611.5" rx="11" ry="6.5" transform="translate(111.87 337.33) rotate(-26.13)" style="fill:#e5b5b5"/><circle cx="911.5" cy="624.5" r="12.5" style="fill:#f4e9e1"/></g></svg>