<?xml version="1.0" standalone="no"?><!DOCTYPE svg PUBLIC "-//W3C//DTD SVG 1.1//EN" "http://www.w3.org/Graphics/SVG/1.1/DTD/svg11.dtd"><svg t="1565942166438" class="icon" viewBox="0 0 1400 1024" version="1.1" xmlns="http://www.w3.org/2000/svg" p-id="2103" width="65.625" height="48" xmlns:xlink="http://www.w3.org/1999/xlink"><defs><style type="text/css"></style></defs><path d="M208.609 221.832c46.637 1.587 93.367 0.316 140.056 0.318 285.084 0.010 570.17 0.272 855.251-0.509 16.627-0.047 34.875-5.567 49.341-13.838 12.208-6.979 24.623-20.143 28.919-33.204 13.56-41.25-18.917-83.491-62.826-83.796-169.706-1.166-339.427-0.474-509.14-0.474 0 0.049 0 0.094 0 0.142-167.467 0-334.937-0.038-502.41 0.111-7.962 0.007-16.109 0.867-23.856 2.664-37.486 8.697-63.379 59.571-43.853 91.173 15.511 25.103 40.479 36.461 68.519 37.414z" p-id="2104" fill="#1296db"></path><path d="M1276.023 832.936c-17.184-22.268-42.448-31.362-71.192-31.31-164.765 0.28-329.53 0.138-494.295 0.127-164.315-0.007-328.633 0.159-492.948-0.223-19.929-0.047-38.012 4.732-54.839 14.434-17.602 10.149-31.384 26.017-29.837 46.021 1.883 24.395 9.682 49.473 35.289 60.608 13.925 6.053 29.789 10.416 44.846 10.632 74.509 1.067 149.041 0.501 223.568 0.501 255.451-0.007 510.897 0.059 766.346-0.17 18.168-0.017 36.276-2.164 51.782-13.63 27.93-20.661 42.274-59.779 21.277-86.989z" p-id="2105" fill="#1296db"></path><path d="M208.811 577.57c165.228 0.779 330.462 0.397 495.696 0.397 0 0.013 0 0.027 0 0.043 166.131 0 332.262 0.393 498.39-0.35 31.073-0.14 56.739-15.167 74.594-40.974 12.502-18.070 10.632-41.953-2.433-56.136-21.236-23.048-46.624-34.759-78.792-34.717-326.437 0.447-652.868 0.275-979.299 0.337-29.155 0.007-52.642 12.706-71.137 34.419-16.362 19.21-16.896 45.119-3.999 66.056 15.641 25.399 41.155 30.804 66.98 30.925z" p-id="2106" fill="#1296db"></path></svg>