<svg id="图层_1" data-name="图层 1" xmlns="http://www.w3.org/2000/svg" viewBox="0 0 687.9 477.39"><title>T--USTC-Software--des_feature_whatyousee</title><path d="M166,394s88.61-62.67,123-72c23.4-6.35,61.5-9.5,97,0,27.8,7.44,95,65,95,65s-76.27,54.83-106,63c-25.55,7-44.5,12.5-106,0C240.28,444.16,166,394,166,394Z" transform="translate(-161.6 -173.54)" style="fill:#f2f2f2;stroke:#1a1a1a;stroke-miterlimit:10;stroke-width:5px"/><circle cx="167.9" cy="206.96" r="62.5" style="fill:#332216"/><line x1="162.4" y1="142.46" x2="520.4" y2="0.46" style="fill:none;stroke:#000;stroke-miterlimit:10"/><line x1="139.9" y1="262.96" x2="498.9" y2="476.96" style="fill:none;stroke:#000;stroke-miterlimit:10"/><rect x="444.9" y="156.96" width="243" height="244" style="fill:#f7daea"/><rect x="535.4" y="156.46" width="31" height="244" style="fill:#f9afc2"/><rect x="566.4" y="156.46" width="31" height="244" style="fill:#f9f4de"/><path d="M722,324c-2.83-1.71-19.36-15.93-39-23-17.78-6.4-42.38-3.33-53,6-13.9,12.2-12.62,45.56,4,62,21.33,21.1,64.63,11.06,86-10,25.88-25.51,11.58-59.34,36-78,16.55-12.65,45.42-19.05,64-4,20.36,16.48,20.71,52.37,4,70-21.41,22.59-62.12,6-72,2C736.63,342.75,740.06,334.9,722,324Z" transform="translate(-161.6 -173.54)" style="fill:#f495a6"/></svg>