<svg xmlns="http://www.w3.org/2000/svg" viewBox="0 0 992.94 477.34"><title>T--USTC-Software--des_feature_lesson</title><g id="图层_2" data-name="图层 2"><ellipse cx="865" cy="590" rx="124" ry="131" transform="translate(-235.38 50.12) rotate(-18.57)" style="fill:#98d1f4"/><path d="M1078.5,590.16l-100,45.94a12,12,0,0,1-15.91-5.9l-71-154.47a12.16,12.16,0,0,1-.93-3,12.48,12.48,0,0,1,.59-6.17,12.72,12.72,0,0,1,6.23-6.74L932,443.49c22.23-8.41,51.39-8.52,58.52,1.78l93.85,129A12,12,0,0,1,1078.5,590.16Z" transform="translate(-92.55 -256)" style="fill:#8a969b"/><path d="M930.28,451.21c-7.95,2.82-25,8.11-30.44,14.57-2,2.4-4,9.31-2.84,12.22,2,5,76,153,76,153l107-50s-84.61-124.47-93-131C969,436,945,446,930.28,451.21Z" transform="translate(-92.55 -256)" style="fill:#edf5f7"/><path d="M891,471" transform="translate(-92.55 -256)" style="fill:#8a969b"/><ellipse cx="289" cy="603" rx="124" ry="131" transform="translate(-269.5 -132.6) rotate(-18.57)" style="fill:#98d1f4"/><path d="M502.5,603.16,402.55,649.1a12,12,0,0,1-15.91-5.9l-71-154.47a12.16,12.16,0,0,1-.93-3,12.48,12.48,0,0,1,.59-6.17,12.72,12.72,0,0,1,6.23-6.74L356,456.49c22.23-8.41,51.39-8.52,58.52,1.78l93.85,129A12,12,0,0,1,502.5,603.16Z" transform="translate(-92.55 -256)" style="fill:#8a969b"/><path d="M315,484" transform="translate(-92.55 -256)" style="fill:#8a969b"/><ellipse cx="177.3" cy="403.94" rx="84.41" ry="91" transform="translate(-175.63 -208.15) rotate(-12.48)" style="fill:#f7eadf"/><circle cx="15.95" cy="199.5" r="13.5" style="fill:#f7eadf"/><path d="M105,338c2.63-11.42,23.76-29.32,34-35,18.35-10.18,63.17-8.72,82-18,5.57-2.75,19-16,19-16s18,38.45,25,76c4.28,22.91,1.17,45.32-3,58.94C253.45,431.87,247,433,247,433l-25-17s4.29-21.12,0-26c-3.83-4.36-19.05-7.24-23-3-2.9,3.11,0,17,0,17l-22-30s-27-27.44-39-30c-7.3-1.55-36,15-36,15S102,351,105,338Z" transform="translate(-92.55 -256)" style="fill:#21201f"/><circle cx="34.95" cy="150.5" r="11.5" style="fill:#21201f"/><ellipse cx="144" cy="432.5" rx="16" ry="6.5" transform="translate(-312.06 -98.55) rotate(-34.47)" style="fill:#d694a2"/><rect x="179.63" y="418.73" width="52" height="107.2" rx="26" transform="translate(-312.98 -73.24) rotate(-32.27)" style="fill:#f7eadf"/><rect x="287" y="540" width="102" height="36" rx="18" transform="translate(-44.22 -282.55) rotate(4.84)" style="fill:#68bfea"/><rect x="348" y="568" width="102" height="36" rx="18" transform="translate(407.13 -371.76) rotate(42.41)" style="fill:#68bfea"/><circle cx="341.45" cy="363" r="16" style="fill:#f7eadf"/><rect x="409.45" y="213" width="138" height="34" style="fill:#edf5f7"/><polygon points="513.45 191 513.45 272 573.45 231 513.45 191" style="fill:#edf5f7"/></g><g id="图层_1" data-name="图层 1"><ellipse cx="753.3" cy="390.94" rx="84.41" ry="91" transform="translate(-159.22 -84.01) rotate(-12.48)" style="fill:#f7eadf"/><circle cx="591.95" cy="186.5" r="13.5" style="fill:#f7eadf"/><path d="M681,325c2.63-11.42,23.76-29.32,34-35,18.35-10.18,63.17-8.72,82-18,5.57-2.75,19-16,19-16s18,38.45,25,76c4.28,22.91,1.17,45.32-3,58.94C829.45,418.87,823,420,823,420l-25-17s4.29-21.12,0-26c-3.83-4.36-19-7.24-23-3-2.9,3.11,0,17,0,17l-22-30s-27-27.44-39-30c-7.3-1.55-36,15-36,15S678,338,681,325Z" transform="translate(-92.55 -256)" style="fill:#21201f"/><circle cx="610.95" cy="137.5" r="11.5" style="fill:#21201f"/><ellipse cx="720" cy="419.5" rx="16" ry="6.5" transform="matrix(0.82, -0.57, 0.57, 0.82, -203.55, 225.19)" style="fill:#d694a2"/><rect x="755.63" y="405.73" width="52" height="107.2" rx="26" transform="translate(-217.06 232.31) rotate(-32.27)" style="fill:#f7eadf"/></g><g id="图层_3" data-name="图层 3"><rect x="863" y="527" width="102" height="36" rx="18" transform="translate(-43.26 -331.23) rotate(4.84)" style="fill:#68bfea"/><rect x="924" y="555" width="102" height="36" rx="18" transform="translate(549.1 -763.66) rotate(42.41)" style="fill:#68bfea"/><circle cx="917.45" cy="350" r="16" style="fill:#f7eadf"/><path d="M707.1,466.37S713,464.15,715,462c1.76-1.88,7-11,7-11l-3,22-11.9-6.63" transform="translate(-92.55 -256)" style="fill:#f2cdbb"/></g></svg>