<svg xmlns="http://www.w3.org/2000/svg" viewBox="0 0 551.2 554.78"><title>T--USTC-Software--des_feature_database</title><g id="图层_2" data-name="图层 2"><ellipse cx="450.87" cy="643.89" rx="157" ry="149" transform="translate(-530.98 792.04) rotate(-85.1)" style="fill:#e8e49e"/><rect x="450.28" y="387.36" width="52" height="131" rx="26" transform="translate(-261.37 -285.09) rotate(4.9)" style="fill:#f4e2d7"/></g><g id="图层_4" data-name="图层 4"><rect x="611.55" y="521.98" width="204" height="83" transform="translate(-283.92 -267.99) rotate(1.78)" style="fill:#bcdaed"/><ellipse cx="712.18" cy="607.51" rx="38.45" ry="102" transform="translate(-218.99 1054.38) rotate(-88.22)" style="fill:#7fb7e2"/><rect x="614.32" y="433.02" width="204" height="83" transform="translate(-286.69 -268.12) rotate(1.78)" style="fill:#bcdaed"/><ellipse cx="717.82" cy="426.49" rx="38.45" ry="102" transform="translate(-32.61 884.63) rotate(-88.22)" style="fill:#7fb7e2"/><ellipse cx="715.03" cy="515.96" rx="38.45" ry="102" transform="translate(-124.73 968.53) rotate(-88.22)" style="fill:#7fb7e2"/><polygon points="463.2 55.94 463.2 113.94 478.2 65.94 463.2 55.94" style="fill:#f5f967"/><polygon points="535.2 84.94 509.2 119.94 551.2 111.94 535.2 84.94" style="fill:#f5f967"/></g><g id="图层_1" data-name="图层 1"><ellipse cx="472.17" cy="366.19" rx="111.5" ry="116.5" transform="translate(-384.61 -101.32) rotate(-16.04)" style="fill:#f4e2d7"/><circle cx="287.94" cy="130.21" r="11.5" style="fill:#f4e2d7"/><path d="M440.69,247.57c-53.83,7.43-79.14,33.36-91.5,95.53-12.08,60.82-5.75,78.8-4.5,111s25,37.14,23.91,37.18l103.6,20.93,12.89-150.45s34.42-30.39,43.79-42.42c6.28-8.06,20.41-35.44,20.41-35.44S515.94,237.18,440.69,247.57Z" transform="translate(-301.8 -246.06)" style="fill:#49403a"/><circle cx="238.43" cy="98.87" r="13.5" style="fill:#110f0e"/><ellipse cx="541.66" cy="392.72" rx="9" ry="19" transform="translate(-197.7 652.79) rotate(-85.1)" style="fill:#efbbc5"/></g><g id="图层_3" data-name="图层 3"><rect x="488.68" y="578.88" width="185" height="52" rx="26" transform="translate(-480.8 4.17) rotate(-21.13)" style="fill:#dbd58f"/><circle cx="367.53" cy="325.72" r="23.5" style="fill:#f4e2d7"/></g></svg>