<?xml version="1.0" encoding="utf-8"?>
<!-- Generator: Adobe Illustrator 23.0.0, SVG Export Plug-In . SVG Version: 6.00 Build 0)  -->
<svg version="1.1" id="图层_1" xmlns="http://www.w3.org/2000/svg" xmlns:xlink="http://www.w3.org/1999/xlink" x="0px" y="0px"
	 viewBox="0 0 1920 1080" style="enable-background:new 0 0 1920 1080;" xml:space="preserve">
<style type="text/css">
	.st0{fill:#FAFDCB;}
	.st1{fill:#0BC900;}
	.st2{fill:#FFFFFF;}
	.st3{fill:#8FFF6A;}
	.st4{fill:url(#SVGID_1_);}
	.st5{fill:url(#SVGID_2_);}
	.st6{fill:#B3B3B3;}
	.st7{fill:url(#SVGID_3_);}
	.st8{fill:url(#SVGID_4_);}
	.st9{fill:url(#SVGID_5_);}
	.st10{fill:url(#SVGID_6_);}
	.st11{fill:url(#SVGID_7_);}
	.st12{fill:url(#SVGID_8_);}
	.st13{fill:#4EAFC2;}
	.st14{fill:url(#SVGID_9_);}
	.st15{fill:url(#SVGID_10_);}
	.st16{fill:#D2A278;}
	.st17{fill:#71AD5A;}
	.st18{fill:#71975A;}
	.st19{fill:#7ECA5A;}
</style>
<path class="st0" d="M677,1110c21.76-63.22,283.3-8.88,284-128c0.45-76.58-166.89-203.81-84-302c65-77,243,16,397-20
	c95.09-22.23,85.07-103.25,178.37-170.33C1591,390,1891.4,386.45,1988.95,468.81c143.16,120.87,82.83,438.4-87.08,642.34
	c-171.9,206.34-517.38,237.51-795.46,204.38C868.7,1287.22,640.12,1217.17,677,1110z"/>
<circle class="st1" cx="1609.5" cy="660.5" r="3.5"/>
<rect x="1595.73" y="617.42" transform="matrix(0.9574 -0.2889 0.2889 0.9574 -122.0643 492.0089)" class="st2" width="20.07" height="84.22"/>
<rect x="1602.76" y="649.71" transform="matrix(0.9574 -0.2889 0.2889 0.9574 -125.9825 493.7846)" class="st3" width="14.13" height="47.97"/>
<rect x="1731" y="214" class="st2" width="2" height="55"/>
<rect x="1731" y="267" class="st2" width="50" height="2"/>
<linearGradient id="SVGID_1_" gradientUnits="userSpaceOnUse" x1="1522.5" y1="992" x2="1522.5" y2="940">
	<stop  offset="0" style="stop-color:#FFFFFF"/>
	<stop  offset="0.0199" style="stop-color:#9EDDE1"/>
	<stop  offset="0.112" style="stop-color:#7CC7D1"/>
	<stop  offset="0.2154" style="stop-color:#5EB4C4"/>
	<stop  offset="0.3245" style="stop-color:#46A4B9"/>
	<stop  offset="0.44" style="stop-color:#3599B1"/>
	<stop  offset="0.5665" style="stop-color:#2B93AC"/>
	<stop  offset="0.7245" style="stop-color:#2891AB"/>
</linearGradient>
<rect x="1128" y="940" class="st4" width="789" height="52"/>
<linearGradient id="SVGID_2_" gradientUnits="userSpaceOnUse" x1="1522.5" y1="1008" x2="1522.5" y2="992">
	<stop  offset="0" style="stop-color:#FAFDE1"/>
	<stop  offset="0.0442" style="stop-color:#97CAC7;stop-opacity:0.9043"/>
	<stop  offset="0.0924" style="stop-color:#2F94AC;stop-opacity:0.8"/>
	<stop  offset="0.7522" style="stop-color:#248EA9"/>
</linearGradient>
<rect x="1128" y="992" class="st5" width="789" height="16"/>
<rect x="1251" y="1008" class="st6" width="26" height="73"/>
<rect x="1695" y="1008" class="st6" width="26" height="73"/>
<linearGradient id="SVGID_3_" gradientUnits="userSpaceOnUse" x1="1217.7806" y1="484.2726" x2="1361.1459" y2="732.5886">
	<stop  offset="0" style="stop-color:#9EDDE1"/>
	<stop  offset="0.0567" style="stop-color:#8CD2D9"/>
	<stop  offset="0.1897" style="stop-color:#68BAC8"/>
	<stop  offset="0.3238" style="stop-color:#4CA8BC"/>
	<stop  offset="0.4577" style="stop-color:#389BB2"/>
	<stop  offset="0.5913" style="stop-color:#2C94AD"/>
	<stop  offset="0.7245" style="stop-color:#2891AB"/>
</linearGradient>
<path class="st7" d="M1332.66,455.29c-7.4-4.15-46.09-3.83-62.23,0.86c-14.35,4.17-35.4,16.66-51.67,40.61
	c-26.16,38.52-11.65,82.08-9.63,88.52c6.07,19.34,9.11,27.93,10.13,37.6c0.78,7.47,3.71,28.73-7.09,45.12
	c-17.21,26.14-53.66,8.59-53.66,8.59c-2.05,17.9,1.77,41.1,17.21,53.72c19.92,16.28,55.86,24.38,76.95,23.64
	c9.87-0.35,86.4-8.96,99.23-16.11c13.56-7.56,39.99-22.22,52.65-44.05c16.2-27.93,29.36-61.24,30.38-100.99
	c1.4-54.81-16.2-98.84-46.58-122.47C1380.25,464.03,1354.93,448.84,1332.66,455.29z"/>
<linearGradient id="SVGID_4_" gradientUnits="userSpaceOnUse" x1="1252.6512" y1="597.686" x2="1272.4978" y2="632.0613">
	<stop  offset="0" style="stop-color:#FFC1A7"/>
	<stop  offset="0.1341" style="stop-color:#FECCB4"/>
	<stop  offset="0.6278" style="stop-color:#FCF3E1"/>
	<stop  offset="1" style="stop-color:#FCF3E1"/>
</linearGradient>
<path class="st8" d="M1282,614.65c0,10.85-8.73,20.35-19.5,20.35s-19.5-9.49-19.5-20.35c0-10.85,8.73-19.65,19.5-19.65
	S1282,603.8,1282,614.65z"/>
<linearGradient id="SVGID_5_" gradientUnits="userSpaceOnUse" x1="1303.5652" y1="523.9052" x2="1389.0791" y2="672.0196">
	<stop  offset="0" style="stop-color:#FFC1A7"/>
	<stop  offset="0.1341" style="stop-color:#FECCB4"/>
	<stop  offset="0.6278" style="stop-color:#FCF3E1"/>
	<stop  offset="1" style="stop-color:#FCF3E1"/>
</linearGradient>
<path class="st9" d="M1429,597c0,46.94-37.16,88-83,88s-83-41.06-83-88s37.16-85,83-85S1429,550.06,1429,597z"/>
<linearGradient id="SVGID_6_" gradientUnits="userSpaceOnUse" x1="1607.464" y1="676.699" x2="1607.464" y2="719">
	<stop  offset="0" style="stop-color:#FFC1A7"/>
	<stop  offset="0.1341" style="stop-color:#FECCB4"/>
	<stop  offset="0.6278" style="stop-color:#FCF3E1"/>
	<stop  offset="1" style="stop-color:#FCF3E1"/>
</linearGradient>
<path class="st10" d="M1627,697c-3.81,10.16-12.73,22-23.5,22s-19.5-9.49-19.5-20.35c0-10.85,7.11-27.93,14-19.65
	c0.97,1.16,4.32,7.19,6,7c7.02-0.79,17.18-15.78,25-6C1633,685,1630,689,1627,697z"/>
<linearGradient id="SVGID_7_" gradientUnits="userSpaceOnUse" x1="1367.1603" y1="684.9854" x2="1490.8173" y2="899.1656">
	<stop  offset="0.1097" style="stop-color:#28C3E4"/>
	<stop  offset="0.5218" style="stop-color:#67D1E2"/>
	<stop  offset="0.8303" style="stop-color:#8FDAE1"/>
	<stop  offset="0.9897" style="stop-color:#9EDDE1"/>
</linearGradient>
<path class="st11" d="M1331,713c-15.84,2.45-45.95,12.66-68,44c-30.05,42.71-22.86,115.61,18,153c39.78,36.4,93.35,35.26,109,34
	c20.17-1.62,38.94-2.09,52-23c12.7-20.34,10-34,17-46c3.98-6.81,22.82-15.93,29-17c46-8,125-67.8,125-130c0-5-21-19-21-19
	c-21.03,8.56-31.82,43.35-62,51c-22.46,5.7-60.62-12.56-113-37C1387,709,1366.9,707.44,1331,713z"/>
<linearGradient id="SVGID_8_" gradientUnits="userSpaceOnUse" x1="1332" y1="696" x2="1350" y2="696">
	<stop  offset="0.6244" style="stop-color:#FCF3E1"/>
	<stop  offset="0.6774" style="stop-color:#FCF3E1"/>
	<stop  offset="1" style="stop-color:#FCF3E1"/>
</linearGradient>
<path class="st12" d="M1341,723L1341,723c-4.95,0-9-4.05-9-9v-36c0-4.95,4.05-9,9-9l0,0c4.95,0,9,4.05,9,9v36
	C1350,718.95,1345.95,723,1341,723z"/>
<path class="st13" d="M1357,457c-11-4-32.52-5.78-49-1c-19,5.51-34.19,14.59-47,29c-32,36-32,90-19,111c-0.34,0.15,12.52,7.98,44-7
	c16.15-7.69,28.47-19.59,39-30s30.21-41.21,31-42c1.24-1.24,3.48,10.23,16,24c10,11,8.3,12.63,23,23c17,12,25,13,40,16
	c1.15,0.23-2-21-5-39c-2.61-15.65-8.8-32.36-23-51C1391,469,1371.22,462.17,1357,457z"/>
<linearGradient id="SVGID_9_" gradientUnits="userSpaceOnUse" x1="1411.6105" y1="905.9783" x2="1393.2557" y2="937.7697">
	<stop  offset="0" style="stop-color:#FFC1A7"/>
	<stop  offset="0.1341" style="stop-color:#FECCB4"/>
	<stop  offset="0.6278" style="stop-color:#FCF3E1"/>
	<stop  offset="1" style="stop-color:#FCF3E1"/>
</linearGradient>
<path class="st14" d="M1422,921.69c0,9.77-8.73,18.31-19.5,18.31s-19.5-8.54-19.5-18.31s8.73-17.69,19.5-17.69
	S1422,911.92,1422,921.69z"/>
<linearGradient id="SVGID_10_" gradientUnits="userSpaceOnUse" x1="1242.5594" y1="847.6979" x2="1387" y2="847.6979">
	<stop  offset="0.0579" style="stop-color:#28C3E4;stop-opacity:0.6"/>
	<stop  offset="0.4929" style="stop-color:#63D1E8;stop-opacity:0.7854"/>
	<stop  offset="0.8232" style="stop-color:#89DAEA;stop-opacity:0.9261"/>
	<stop  offset="0.9965" style="stop-color:#97DDEB"/>
</linearGradient>
<path class="st15" d="M1307,771c-1.87-2.23-16.5-19.69-32-17c-20.62,3.58-30.21,40.58-32,61c-3.72,42.48,16.19,92.96,57,115
	c26.3,14.2,80.83,16.51,86,1c1-3,1-18,1-18c-10.53-15.82-53.76,2.15-67-12c-9.03-9.65-0.06-21.57,1-61
	C1321.73,812.64,1322.05,788.96,1307,771z"/>
<ellipse class="st1" cx="1609" cy="660.5" rx="3" ry="3.5"/>
<circle class="st1" cx="1607.5" cy="671.5" r="1.5"/>
<g>
	<rect x="1707.37" y="838.46" class="st16" width="108.56" height="101.54"/>
	<path class="st17" d="M1762.14,835.36c1.44-9.86,5.42-44.61,23.03-81.86c16.09-34.06,28.9-52.86,30.94-56.22
		C1828.67,676.57,1860,645,1860,645s-0.68,36.43-4.32,52.27c-7.92,34.52-19.43,60.16-44.61,99.62
		C1797.14,818.71,1759.82,851.22,1762.14,835.36z"/>
	<path class="st18" d="M1761.97,837.37c-0.88-5.16-3.32-23.33-14.11-42.82c-9.86-17.82-17.71-27.65-18.96-29.41
		c-7.7-10.83-26.9-27.34-26.9-27.34s0.42,19.06,2.65,27.34c4.85,18.06,11.91,31.47,27.34,52.11
		C1740.52,828.66,1763.39,845.67,1761.97,837.37z"/>
	<path class="st19" d="M1765.25,834.15c0.32-8.28,1.77-37.43-0.76-68.95c-2.31-28.81-4.79-44.78-5.15-47.63
		c-2.25-17.56-9.42-44.57-9.42-44.57s-2.59,30.5-2.7,43.83c-0.23,29.04,1.32,50.72,6,84.21
		C1755.81,819.57,1764.74,847.48,1765.25,834.15z"/>
</g>
</svg>
