<?xml version="1.0" standalone="no"?><!DOCTYPE svg PUBLIC "-//W3C//DTD SVG 1.1//EN" "http://www.w3.org/Graphics/SVG/1.1/DTD/svg11.dtd"><svg t="1570621785307" class="icon" viewBox="0 0 1024 1024" version="1.1" xmlns="http://www.w3.org/2000/svg" p-id="2531" xmlns:xlink="http://www.w3.org/1999/xlink" width="200" height="200"><defs><style type="text/css"></style></defs><path d="M458.5 924.8c-72.8 0-142.7-25.3-199.2-72.7-63.6-53.3-102.5-128.2-109.8-210.9S167.7 478 221 414.5c53.3-63.6 128.2-102.5 210.9-109.8 82.7-7.2 163.2 18.2 226.7 71.5 63.6 53.3 102.5 128.2 109.8 210.9s-18.2 163.2-71.5 226.7S568.7 916.4 486 923.6c-9.2 0.8-18.4 1.2-27.5 1.2zM435 340.1l3.1 35.4c-63.8 5.6-121.5 35.6-162.7 84.7-41.1 49-60.7 111.1-55.2 174.9S256 756.5 305 797.7c49 41.1 111.1 60.7 174.9 55.2 63.8-5.6 121.5-35.6 162.7-84.7 41.1-49 60.7-111.1 55.2-174.9S662 471.8 613 430.6c-49-41.1-111.1-60.7-174.9-55.2l-3.1-35.3z" p-id="2532" fill="#007bff"></path><path d="M635.8 434.4c-7.6 0-15.2-2.4-21.6-7.4-15.6-12-18.5-34.3-6.5-49.8l195.8-254.9c12-15.6 34.3-18.5 49.8-6.5 15.6 12 18.5 34.3 6.5 49.8L664 420.5c-7 9.1-17.5 13.9-28.2 13.9z" p-id="2533" fill="#007bff"></path><path d="M887 382.4c-15.9 0-30.4-10.7-34.4-26.8l-52.3-207.4c-4.8-19 6.7-38.3 25.7-43.1 19-4.8 38.3 6.7 43.1 25.7l52.3 207.4c4.8 19-6.7 38.3-25.7 43.1-2.9 0.7-5.8 1.1-8.7 1.1z" p-id="2534" fill="#007bff"></path><path d="M620.3 202.6c-17.3 0-32.5-12.7-35.1-30.3-2.9-19.4 10.5-37.5 29.9-40.3l211.6-31.3c19.4-2.9 37.5 10.5 40.3 29.9 2.9 19.4-10.5 37.5-29.9 40.3l-211.6 31.3c-1.7 0.2-3.5 0.4-5.2 0.4z" p-id="2535" fill="#007bff"></path></svg>