<?xml version="1.0" encoding="utf-8"?>
<!-- Generator: Adobe Illustrator 23.0.0, SVG Export Plug-In . SVG Version: 6.00 Build 0)  -->
<svg version="1.1" xmlns="http://www.w3.org/2000/svg" xmlns:xlink="http://www.w3.org/1999/xlink" x="0px" y="0px"
	 viewBox="0 0 1920 1080" style="enable-background:new 0 0 1920 1080;" xml:space="preserve">
<style type="text/css">
	.st0{fill:#FAFDCB;}
	.st1{opacity:0.8;fill:url(#SVGID_1_);}
	.st2{fill:#FFFFFF;}
	.st3{opacity:0.27;fill:url(#SVGID_2_);}
	.st4{opacity:0.27;fill:url(#SVGID_3_);}
	.st5{fill:#E6E6E6;}
	.st6{fill:#FFFFFF;stroke:#000000;stroke-miterlimit:10;}
	.st7{fill:#FFDC5E;}
</style>
<g id="图层_1">
	<path class="st0" d="M646,55C694-4,937.3,33.12,938-86c0.45-76.58-166.89-203.81-84-302c65-77,243,16,397-20
		c95.09-22.23,85.07-103.25,178.37-170.33C1568-678,1868.4-681.55,1965.95-599.19C2109.11-478.32,2041.43-163.61,1888,53
		c-34,48-89.83,174.23-251,164c-126-8-171.55,67.31-332,48c-108-13-143-60-226-65c-87.43-5.27-89,25-250,19
		C695.91,214.04,600.64,110.75,646,55z"/>
	<linearGradient id="SVGID_1_" gradientUnits="userSpaceOnUse" x1="875" y1="458" x2="875" y2="1620">
		<stop  offset="0" style="stop-color:#9EDDE1"/>
		<stop  offset="0.0627" style="stop-color:#8DD2D9"/>
		<stop  offset="0.2901" style="stop-color:#55ADBF"/>
		<stop  offset="0.459" style="stop-color:#3197AF"/>
		<stop  offset="0.5496" style="stop-color:#248EA9"/>
		<stop  offset="0.5872" style="stop-color:#248EA9"/>
	</linearGradient>
	<path class="st1" d="M-108.88,819.29C-21.83,691.04,21.7,626.92,63.82,591.95c137.41-114.06,343.78-163.8,528.01-115.66
		C759.29,520.04,867.45,633.95,941.2,711.6c124.38,130.98,136.22,168.17,235.84,245.43c22.28,17.28,159.9,104.34,347.11,64.86
		c172.74-36.44,269.35-166.22,298.2-203.58c67.91-87.91,77.58-124.78,99.44-122.66c55.78,5.42,174.33,422.72,15.88,678.02
		c-299.92,483.23-1433.53,130.33-1877.83-7.98c-102.75-31.99-304.59-101.38-325.54-231.33
		C-276.43,1067.81-220.72,984.07-108.88,819.29z"/>
	<path class="st2" d="M-49.75,809.24c9.79-10.11,276.32,28.3,292.74,31.8c22.1,4.7,38.06,6.83,45.52,9.52c0,0,6.51,2.65,12.42,8.01
		c14.27,12.94-0.14,77.8-53.85,141.69c-55.94,66.54-140,86.72-163.39,92.02c-38.69,8.78-135.8,30.82-188.12-9.39
		C-176.78,1027.31-115.57,877.22-49.75,809.24z"/>
	<linearGradient id="SVGID_2_" gradientUnits="userSpaceOnUse" x1="58.837" y1="420.837" x2="111.1629" y2="473.163">
		<stop  offset="0" style="stop-color:#9EDDE1"/>
		<stop  offset="0.1059" style="stop-color:#8DD2D9"/>
		<stop  offset="0.4904" style="stop-color:#55ADBF"/>
		<stop  offset="0.776" style="stop-color:#3197AF"/>
		<stop  offset="0.9291" style="stop-color:#248EA9"/>
		<stop  offset="0.953" style="stop-color:#248EA9"/>
	</linearGradient>
	<circle class="st3" cx="85" cy="447" r="37"/>
	
		<linearGradient id="SVGID_3_" gradientUnits="userSpaceOnUse" x1="58.9836" y1="615.4443" x2="111.3095" y2="667.7703" gradientTransform="matrix(0.4438 0.0783 -0.0789 0.4469 52.3075 268.158)">
		<stop  offset="0" style="stop-color:#9EDDE1"/>
		<stop  offset="0.1059" style="stop-color:#8DD2D9"/>
		<stop  offset="0.4904" style="stop-color:#55ADBF"/>
		<stop  offset="0.776" style="stop-color:#3197AF"/>
		<stop  offset="0.9291" style="stop-color:#248EA9"/>
		<stop  offset="0.953" style="stop-color:#248EA9"/>
	</linearGradient>
	<path class="st4" d="M55.92,564.46c-1.61,9.13-10.27,15.24-19.34,13.64c-9.07-1.6-15.12-10.3-13.5-19.43
		c1.61-9.13,10.27-15.24,19.34-13.64S57.53,555.33,55.92,564.46z"/>
</g>
<g id="图层_2">
	<circle class="st0" cx="1634" cy="300" r="51"/>
	<circle class="st0" cx="1798.5" cy="198.5" r="23.5"/>
	<circle class="st5" cx="359.5" cy="622.5" r="72.5"/>
	<circle class="st0" cx="359.5" cy="621.5" r="59.5"/>
	<rect x="287" y="617" class="st5" width="145" height="6"/>
	<rect x="358" y="557" class="st5" width="4" height="138"/>
	<ellipse cx="1444.5" cy="1021" rx="11.5" ry="12"/>
	<path class="st6" d="M-25.5,788.5"/>
	<path class="st6" d="M-42.5,745.5"/>
	<g>
		<path d="M1444.49,1010c-3.42,0-6.27-2.68-6.48-6.1c-0.11-1.73,0.47-3.4,1.62-4.71s2.74-2.08,4.47-2.18
			c0.14-0.01,0.27-0.01,0.41-0.01c3.42,0,6.27,2.68,6.48,6.1c0.11,1.73-0.47,3.4-1.62,4.71s-2.74,2.08-4.47,2.18
			C1444.76,1010,1444.63,1010,1444.49,1010z"/>
		<path d="M1444.51,997.5L1444.51,997.5c3.16,0,5.79,2.47,5.98,5.63c0.1,1.6-0.43,3.14-1.49,4.34s-2.53,1.92-4.13,2.02
			c-0.13,0.01-0.25,0.01-0.38,0.01c-3.16,0-5.79-2.47-5.98-5.63c-0.1-1.6,0.43-3.14,1.49-4.34s2.53-1.92,4.13-2.02
			C1444.26,997.5,1444.38,997.5,1444.51,997.5 M1444.51,996.5c-0.15,0-0.29,0-0.44,0.01c-3.86,0.24-6.79,3.56-6.55,7.42
			c0.23,3.71,3.31,6.57,6.98,6.57c0.15,0,0.29,0,0.44-0.01c3.86-0.24,6.79-3.56,6.55-7.42
			C1451.26,999.36,1448.18,996.5,1444.51,996.5L1444.51,996.5z"/>
	</g>
	<g>
		<path d="M1458.07,1028.41c-0.86,0-3.05-2.49-4.92-7.16c-0.88-2.19-1.47-4.34-1.66-6.05c-0.21-1.85,0.14-2.5,0.35-2.58
			c0,0,0.01,0,0.01,0c0.96,0,3.14,2.49,5.01,7.15c0.88,2.19,1.47,4.34,1.66,6.05c0.21,1.85-0.14,2.5-0.35,2.58L1458.07,1028.41z"/>
		<path d="M1452.05,1013.13c0.68,0.31,2.58,2.4,4.35,6.81c1.77,4.4,1.84,7.23,1.56,7.93c-0.68-0.31-2.58-2.4-4.35-6.81
			C1451.84,1016.65,1451.77,1013.83,1452.05,1013.13 M1451.93,1012.09c-0.1,0-0.19,0.02-0.28,0.05c-1.28,0.51-0.82,4.67,1.03,9.28
			c1.72,4.3,4.04,7.48,5.39,7.48c0.1,0,0.19-0.02,0.28-0.05c1.28-0.51,0.82-4.67-1.03-9.28
			C1455.6,1015.27,1453.28,1012.09,1451.93,1012.09L1451.93,1012.09z"/>
	</g>
	<g>
		<path d="M1432.72,1028.69c-0.65-0.18-1.12-3.43,0.35-8.73c1.37-4.93,3.32-7.66,4.14-7.66c0.71,0.19,1.19,3.43-0.29,8.73
			c-1.37,4.93-3.32,7.66-4.14,7.66C1432.76,1028.7,1432.74,1028.7,1432.72,1028.69z"/>
		<path d="M1437.12,1012.85c0.35,0.66,0.59,3.48-0.68,8.05c-1.28,4.62-2.97,6.91-3.56,7.26c-0.35-0.64-0.6-3.46,0.67-8.06
			C1434.82,1015.53,1436.48,1013.24,1437.12,1012.85 M1437.21,1011.8c-1.34,0-3.36,3.47-4.62,8.03c-1.33,4.79-1.33,8.97,0,9.34
			c0.06,0.02,0.13,0.03,0.2,0.03c1.34,0,3.36-3.47,4.62-8.03c1.33-4.79,1.33-8.97,0-9.34
			C1437.35,1011.81,1437.28,1011.8,1437.21,1011.8L1437.21,1011.8z"/>
	</g>
	<ellipse class="st7" cx="1245.89" cy="737.2" rx="51.11" ry="52.8"/>
	<g>
		<ellipse class="st2" cx="1236.33" cy="728.52" rx="46.33" ry="47.52"/>
	</g>
</g>
</svg>
